<svg width="204" height="54" viewBox="0 0 204 54" fill="none" xmlns="http://www.w3.org/2000/svg">
<path d="M75.5238 23.7857C74.989 24.2143 74.3471 24.5357 73.4913 24.5357H69.8542C69.7472 24.5357 69.6403 24.4286 69.6403 24.3214V19.6071C69.6403 19.5 69.7472 19.3928 69.8542 19.3928H73.4913C74.3471 19.3928 74.989 19.6071 75.5238 20.1428C76.0587 20.5714 76.2727 21.2143 76.2727 21.9643C76.3796 22.7143 76.0587 23.3571 75.5238 23.7857ZM79.8028 25.3928C80.4447 24.4286 80.7656 23.25 80.7656 21.8571C80.7656 20.8928 80.5516 20.0357 80.2307 19.2857C79.9098 18.5357 79.3749 17.7857 78.84 17.25C78.1982 16.7143 77.4494 16.2857 76.5936 15.9643C75.7378 15.6428 74.775 15.5357 73.7053 15.5357H65.4683C65.2543 15.5357 65.1473 15.6428 65.1473 15.8571V35.8928C65.1473 36.1071 65.2543 36.2143 65.4683 36.2143H69.3193C69.5333 36.2143 69.6403 36.1071 69.6403 35.8928V28.5C69.6403 28.3928 69.7472 28.2857 69.8542 28.2857H72.6355L76.1657 35.8928C76.2727 36.1071 76.3796 36.2143 76.5936 36.2143H80.8726C80.9795 36.2143 81.0865 36.2143 81.0865 36.1071C81.0865 36 81.0865 36 81.0865 35.8928L77.0215 27.75C78.3052 27.1071 79.161 26.3571 79.8028 25.3928Z" fill="#F46036"/>
<path d="M97.9885 15.5357H84.7236C84.5097 15.5357 84.4027 15.6428 84.4027 15.8571V35.8928C84.4027 36.1071 84.5097 36.2143 84.7236 36.2143H97.9885C98.2024 36.2143 98.3094 36.1071 98.3094 35.8928V32.6786C98.3094 32.4643 98.2024 32.3571 97.9885 32.3571H89.1096C89.0026 32.3571 88.8956 32.25 88.8956 32.1428V27.8571C88.8956 27.75 89.0026 27.6428 89.1096 27.6428H96.4908C96.7048 27.6428 96.8117 27.5357 96.8117 27.3214V24.1071C96.8117 23.8928 96.7048 23.7857 96.4908 23.7857H89.1096C89.0026 23.7857 88.8956 23.6786 88.8956 23.5714V19.5C88.8956 19.3928 89.0026 19.2857 89.1096 19.2857H97.9885C98.2024 19.2857 98.3094 19.1786 98.3094 18.9643V15.75C98.2024 15.5357 98.0954 15.5357 97.9885 15.5357Z" fill="#F46036"/>
<path d="M117.03 24.6428H109.97C109.756 24.6428 109.649 24.75 109.649 24.9643V27.8571C109.649 28.0714 109.756 28.1785 109.97 28.1785H112.751C112.858 28.1785 112.965 28.2857 112.965 28.3928C112.965 28.8214 112.965 29.25 112.858 29.5714C112.858 29.8928 112.751 30.2143 112.644 30.4286C112.43 31.0714 112.002 31.6071 111.36 32.0357C110.718 32.3571 110.077 32.5714 109.328 32.5714C108.365 32.5714 107.723 32.3571 107.081 31.9286C106.546 31.5 106.119 30.9643 105.905 30.2143C105.798 30 105.798 29.7857 105.798 29.5714C105.798 29.3571 105.691 29.0357 105.691 28.7143C105.691 28.3928 105.691 27.9643 105.584 27.5357C105.584 27 105.584 26.4643 105.584 25.8214C105.584 25.1785 105.584 24.5357 105.584 24.1071C105.584 23.6785 105.584 23.25 105.691 22.9285C105.691 22.6071 105.798 22.2857 105.798 22.0714C105.798 21.8571 105.905 21.6428 105.905 21.4285C106.119 20.6785 106.546 20.1428 107.081 19.7143C107.616 19.2857 108.365 19.0714 109.221 19.0714C110.077 19.0714 110.718 19.2857 111.36 19.6071C111.895 19.9285 112.43 20.4643 112.751 21.2143C112.858 21.4285 112.965 21.4285 113.179 21.3214L116.388 19.9285C116.602 19.8214 116.602 19.7143 116.495 19.5C116.281 18.8571 115.96 18.3214 115.532 17.7857C115.104 17.25 114.569 16.8214 113.928 16.3928C113.286 15.9643 112.644 15.6428 111.788 15.4285C111.039 15.2143 110.077 15.1071 109.114 15.1071C107.295 15.1071 105.691 15.5357 104.3 16.3928C102.909 17.25 102.053 18.4285 101.519 20.1428C101.412 20.4643 101.305 20.8928 101.198 21.2143C101.091 21.5357 101.091 21.9643 100.984 22.3928C100.984 22.8214 100.877 23.3571 100.877 23.8928C100.877 24.4285 100.877 25.0714 100.877 25.8214C100.877 26.5714 100.877 27.2143 100.877 27.75C100.877 28.2857 100.877 28.8214 100.984 29.25C100.984 29.6785 101.091 30.1071 101.198 30.4286C101.305 30.75 101.412 31.1786 101.519 31.5C102.053 33.2143 103.016 34.3928 104.3 35.25C105.691 36.1071 107.188 36.5357 109.114 36.5357C110.932 36.5357 112.537 36.1071 113.821 35.25C115.104 34.3928 116.067 33.1071 116.602 31.3928C116.816 30.8571 116.923 30.1071 117.03 29.3571C117.137 28.5 117.137 27.6428 117.137 26.7857V25.0714C117.351 24.75 117.244 24.6428 117.03 24.6428Z" fill="#F46036"/>
<path d="M125.267 15.5357H121.416C121.202 15.5357 121.095 15.6428 121.095 15.8571V35.8928C121.095 36.1071 121.202 36.2143 121.416 36.2143H125.267C125.481 36.2143 125.588 36.1071 125.588 35.8928V15.75C125.588 15.5357 125.481 15.5357 125.267 15.5357Z" fill="#F46036"/>
<path d="M140.992 27.5357C140.992 28.0714 140.992 28.3928 140.885 28.7143C140.885 29.0357 140.778 29.3571 140.778 29.5714C140.778 29.7857 140.671 30 140.671 30.2143C140.457 30.9643 140.029 31.5 139.494 31.9286C138.96 32.3571 138.211 32.5714 137.355 32.5714C136.499 32.5714 135.857 32.3571 135.216 31.9286C134.681 31.5 134.253 30.9643 134.039 30.2143C133.932 30 133.932 29.7857 133.932 29.5714C133.932 29.3571 133.825 29.0357 133.825 28.7143C133.825 28.3928 133.825 27.9643 133.718 27.5357C133.718 27 133.718 26.4643 133.718 25.8214C133.718 25.1785 133.718 24.5357 133.718 24.1071C133.718 23.5714 133.718 23.25 133.825 22.9285C133.825 22.6071 133.932 22.2857 133.932 22.0714C133.932 21.8571 134.039 21.6428 134.039 21.4285C134.253 20.6785 134.681 20.1428 135.216 19.7143C135.75 19.2857 136.499 19.0714 137.355 19.0714C138.211 19.0714 138.853 19.2857 139.494 19.7143C140.029 20.1428 140.457 20.6785 140.671 21.4285C140.778 21.6428 140.778 21.8571 140.778 22.0714C140.778 22.2857 140.885 22.6071 140.885 22.9285C140.885 23.25 140.885 23.6785 140.992 24.1071C140.992 24.6428 140.992 25.1785 140.992 25.8214C140.992 26.4643 140.992 27 140.992 27.5357ZM145.378 22.3928C145.378 21.9643 145.271 21.5357 145.164 21.2143C145.057 20.8928 144.95 20.4643 144.843 20.1428C144.308 18.5357 143.346 17.25 142.062 16.3928C140.671 15.5357 139.174 15.1071 137.355 15.1071C135.536 15.1071 134.039 15.5357 132.648 16.3928C131.257 17.25 130.402 18.5357 129.867 20.1428C129.76 20.4643 129.653 20.8928 129.546 21.2143C129.439 21.5357 129.439 21.9643 129.332 22.3928C129.332 22.8214 129.225 23.3571 129.225 23.8928C129.225 24.4285 129.225 25.0714 129.225 25.8214C129.225 26.5714 129.225 27.2143 129.225 27.75C129.225 28.2857 129.225 28.8214 129.332 29.25C129.332 29.6785 129.439 30.1071 129.546 30.4286C129.653 30.75 129.76 31.1786 129.867 31.5C130.402 33.2143 131.364 34.3928 132.648 35.25C134.039 36.1071 135.536 36.5357 137.355 36.5357C139.174 36.5357 140.778 36.1071 142.062 35.25C143.453 34.3928 144.308 33.2143 144.843 31.5C144.95 31.1786 145.057 30.75 145.164 30.4286C145.271 30.1071 145.271 29.6785 145.378 29.25C145.378 28.8214 145.485 28.3928 145.485 27.75C145.485 27.2143 145.485 26.5714 145.485 25.8214C145.485 25.0714 145.485 24.4285 145.485 23.8928C145.485 23.25 145.378 22.8214 145.378 22.3928Z" fill="#F46036"/>
<path d="M164.847 15.5357H161.424C161.21 15.5357 161.103 15.6428 161.103 15.8571V28.8214H160.996L153.722 15.8571C153.615 15.6428 153.401 15.5357 153.187 15.5357H149.55C149.336 15.5357 149.229 15.6428 149.229 15.8571V35.8928C149.229 36.1071 149.336 36.2143 149.55 36.2143H152.973C153.187 36.2143 153.294 36.1071 153.294 35.8928V22.8214H153.401L160.675 35.7857C160.782 36 160.996 36.1071 161.21 36.1071H164.847C165.061 36.1071 165.168 36 165.168 35.7857V15.75C165.168 15.5357 165.061 15.5357 164.847 15.5357Z" fill="#F46036"/>
<path d="M180.145 27.5357C180.145 27.9643 180.145 28.3928 180.038 28.7143C180.038 29.0357 179.931 29.25 179.931 29.4643C179.931 29.6786 179.824 29.7857 179.824 30C179.61 30.8571 179.075 31.5 178.54 31.8214C177.898 32.1428 177.042 32.3571 176.08 32.3571H173.726C173.619 32.3571 173.512 32.25 173.512 32.1428V19.6071C173.512 19.5 173.619 19.3928 173.726 19.3928H176.08C177.149 19.3928 177.898 19.6071 178.54 19.9286C179.182 20.25 179.61 20.8928 179.824 21.75C179.931 21.9643 179.931 22.0714 179.931 22.2857C179.931 22.5 180.038 22.7143 180.038 23.0357C180.038 23.3571 180.038 23.6786 180.145 24.2143C180.145 24.6428 180.145 25.1786 180.145 25.9286C180.145 26.4643 180.145 27 180.145 27.5357ZM184.531 22.1786C184.531 21.75 184.424 21.4286 184.317 21.1071C184.21 20.7857 184.21 20.4643 184.103 20.25C183.568 18.6428 182.712 17.5714 181.535 16.7143C180.359 15.9643 178.861 15.5357 177.042 15.5357H169.34C169.126 15.5357 169.019 15.6428 169.019 15.8571V35.8928C169.019 36.1071 169.126 36.2143 169.34 36.2143H177.042C178.861 36.2143 180.359 35.7857 181.535 35.0357C182.712 34.2857 183.568 33.1071 184.103 31.5C184.21 31.1786 184.21 30.9643 184.317 30.6428C184.424 30.3214 184.424 30 184.531 29.5714C184.531 29.1428 184.638 28.6071 184.638 28.0714C184.638 27.5357 184.638 26.7857 184.638 25.9286C184.638 25.0714 184.638 24.3214 184.638 23.7857C184.531 23.0357 184.531 22.6071 184.531 22.1786Z" fill="#F46036"/>
<path d="M199.507 27.5357C199.507 28.0714 199.507 28.3929 199.4 28.7143C199.4 29.0357 199.293 29.3571 199.293 29.5714C199.293 29.7857 199.186 30 199.186 30.2143C198.972 30.9643 198.544 31.5 198.009 31.9286C197.475 32.3571 196.726 32.5714 195.87 32.5714C195.014 32.5714 194.372 32.3571 193.73 31.9286C193.196 31.5 192.768 30.9643 192.554 30.2143C192.447 30 192.447 29.7857 192.447 29.5714C192.447 29.3571 192.34 29.0357 192.34 28.7143C192.34 28.3929 192.34 27.9643 192.233 27.5357C192.233 27 192.233 26.4643 192.233 25.8214C192.233 25.1786 192.233 24.5357 192.233 24.1071C192.233 23.5714 192.233 23.25 192.34 22.9286C192.34 22.6071 192.447 22.2857 192.447 22.0714C192.447 21.8571 192.554 21.6429 192.554 21.4286C192.768 20.6786 193.196 20.1429 193.73 19.7143C194.265 19.2857 195.014 19.0714 195.87 19.0714C196.726 19.0714 197.368 19.2857 198.009 19.7143C198.544 20.1429 198.972 20.6786 199.186 21.4286C199.293 21.6429 199.293 21.8571 199.293 22.0714C199.293 22.2857 199.4 22.6071 199.4 22.9286C199.4 23.25 199.4 23.6786 199.507 24.1071C199.507 24.6429 199.507 25.1786 199.507 25.8214C199.507 26.4643 199.507 27 199.507 27.5357ZM204 23.7857C204 23.25 204 22.7143 203.893 22.2857C203.893 21.8571 203.786 21.4286 203.679 21.1071C203.572 20.7857 203.465 20.3571 203.358 20.0357C202.823 18.4286 201.861 17.1429 200.577 16.2857C199.186 15.4286 197.689 15 195.87 15C194.051 15 192.447 15.4286 191.163 16.2857C189.772 17.1429 188.917 18.4286 188.382 20.0357C188.275 20.3571 188.168 20.7857 188.061 21.1071C187.954 21.4286 187.954 21.8571 187.847 22.2857C187.847 22.7143 187.74 23.25 187.74 23.7857C187.74 24.3214 187.74 24.9643 187.74 25.7143C187.74 26.4643 187.74 27.1071 187.74 27.6429C187.74 28.1786 187.74 28.7143 187.847 29.1429C187.847 29.5714 187.954 30 188.061 30.3214C188.168 30.6429 188.275 31.0714 188.382 31.3929C188.917 33.1071 189.879 34.2857 191.163 35.1429C192.554 36 194.051 36.4286 195.87 36.4286C197.689 36.4286 199.186 36 200.577 35.1429C201.967 34.2857 202.823 33.1071 203.358 31.3929C203.465 31.0714 203.572 30.6429 203.679 30.3214C203.786 30 203.786 29.5714 203.893 29.1429C203.893 28.7143 204 28.1786 204 27.6429C204 27.1071 204 26.4643 204 25.7143C204 25.0714 204 24.4286 204 23.7857Z" fill="#F46036"/>
<path d="M15.4043 5.14286C15.4043 4.17857 16.1531 3.42857 17.1159 3.42857H34.3388C35.3015 3.42857 36.0504 4.17857 36.0504 5.14286V9.42857H39.4735V5.14286C39.4735 2.25 37.1201 0 34.3388 0H17.1159C14.2276 0 11.9811 2.35714 11.9811 5.14286V9.32143V33.5357H15.4043V5.14286Z" fill="#F46036"/>
<path d="M33.483 36.1071H5.13477C4.172 36.1071 3.42318 35.3571 3.42318 34.3929V31.7143C5.56266 30.5357 6.84636 28.1786 6.84636 25.8214C6.84636 23.3571 5.56266 21.1071 3.42318 19.9286V17.25C3.42318 16.2857 4.172 15.5357 5.13477 15.5357H9.41374V12.1071H5.13477C2.24646 12.1071 0 14.4643 0 17.25V22.1786L1.17672 22.6071C2.56738 23.1429 3.42318 24.4286 3.42318 25.8214C3.42318 27.2143 2.46041 28.6071 1.17672 29.0357L0 29.4643V34.3929C0 37.2857 2.35344 39.5357 5.13477 39.5357H33.483V36.1071Z" fill="#F46036"/>
<path d="M46.3199 12H17.9717V15.4286H46.3199C47.2826 15.4286 48.0315 16.1786 48.0315 17.1429V19.8214C45.892 21 44.6083 23.3571 44.6083 25.7143C44.6083 28.1786 45.892 30.4286 48.0315 31.6071V34.2857C48.0315 35.25 47.2826 36 46.3199 36H42.0409V39.4286H46.3199C49.2082 39.4286 51.4546 37.0714 51.4546 34.2857V29.3571L50.2779 28.9286C48.8873 28.3929 48.0315 27.1071 48.0315 25.7143C48.0315 24.3214 48.9942 22.9286 50.2779 22.5L51.4546 22.0714V17.1429C51.5616 14.3571 49.2082 12 46.3199 12Z" fill="#F46036"/>
<path d="M36.0504 46.3928C36.0504 47.3571 35.3015 48.1071 34.3388 48.1071H17.1159C16.1531 48.1071 15.4043 47.3571 15.4043 46.3928V42.1071H11.9811V46.3928C11.9811 49.2857 14.3346 51.5357 17.1159 51.5357H34.3388C37.2271 51.5357 39.4735 49.1785 39.4735 46.3928V18.1071H36.0504V46.3928Z" fill="#F46036"/>
<path d="M24.0692 44.6786C24.0692 45.6429 24.818 46.3929 25.7808 46.3929C26.7436 46.3929 27.4924 45.6429 27.4924 44.6786C27.4924 43.7143 26.7436 42.9643 25.7808 42.9643C24.818 42.9643 24.0692 43.8214 24.0692 44.6786Z" fill="#F46036"/>
<path d="M21.074 5.14285C20.86 5.14285 20.6461 5.35714 20.6461 5.57142C20.6461 5.78571 20.86 6 21.074 6H30.4877C30.7016 6 30.9156 5.78571 30.9156 5.57142C30.9156 5.35714 30.7016 5.14285 30.4877 5.14285H21.074Z" fill="#F46036"/>
</svg>
