<svg xmlns="http://www.w3.org/2000/svg" width="193.901" height="84.935" viewBox="0 0 193.901 84.935">
  <g id="Group_32" data-name="Group 32" transform="translate(-44.782 -57.714)">
    <g id="Group_24" data-name="Group 24">
      <g id="Group_23" data-name="Group 23">
        <path id="Path_100" data-name="Path 100" d="M44.806,127.172l3.729-8.071a.215.215,0,0,1,.2-.132h.121a.2.2,0,0,1,.2.132l3.693,8.071a.211.211,0,0,1-.2.312H51.51a.345.345,0,0,1-.348-.24l-.588-1.3H46.988l-.587,1.3a.362.362,0,0,1-.348.24H45.01A.212.212,0,0,1,44.806,127.172Zm1.726-9.751a.752.752,0,0,1,.756-.755.762.762,0,0,1,.768.755.773.773,0,0,1-.768.768A.763.763,0,0,1,46.532,117.421Zm3.455,7.2-1.2-2.639h-.035l-1.176,2.639Zm-.492-7.2a.752.752,0,0,1,.756-.755.762.762,0,0,1,.768.755.773.773,0,0,1-.768.768A.763.763,0,0,1,49.495,117.421Z" fill="#0033a0"/>
        <path id="Path_101" data-name="Path 101" d="M55.293,119.316a.228.228,0,0,1,.228-.228H58.95a2.6,2.6,0,0,1,2.616,2.579,2.647,2.647,0,0,1-1.776,2.423l1.644,3.046a.227.227,0,0,1-.2.348H59.97a.2.2,0,0,1-.191-.108l-1.6-3.178H56.852v3.058a.236.236,0,0,1-.228.228h-1.1a.228.228,0,0,1-.228-.228Zm3.526,3.6a1.222,1.222,0,0,0,1.187-1.224,1.193,1.193,0,0,0-1.187-1.163H56.863v2.387Z" fill="#0033a0"/>
        <path id="Path_102" data-name="Path 102" d="M72.523,118.969a4.527,4.527,0,0,1,2.925,1.115.231.231,0,0,1,.012.336l-.743.779a.2.2,0,0,1-.312,0,2.72,2.72,0,0,0-1.811-.695,2.765,2.765,0,0,0,.012,5.529,3.748,3.748,0,0,0,1.427-.3v-1.02h-.96a.217.217,0,0,1-.227-.215v-.948a.22.22,0,0,1,.227-.228h2.3a.226.226,0,0,1,.217.228v3.071a.231.231,0,0,1-.1.191,6.054,6.054,0,0,1-2.973.78,4.312,4.312,0,0,1,0-8.623Z" fill="#0033a0"/>
        <path id="Path_103" data-name="Path 103" d="M78.8,119.316a.228.228,0,0,1,.228-.228h4.88a.228.228,0,0,1,.229.228v.984a.228.228,0,0,1-.229.228H80.36V122.5h2.962a.236.236,0,0,1,.228.228v1a.228.228,0,0,1-.228.228H80.36v2.1h3.549a.229.229,0,0,1,.229.228v.984a.228.228,0,0,1-.229.228h-4.88a.228.228,0,0,1-.228-.228Z" fill="#0033a0"/>
        <path id="Path_104" data-name="Path 104" d="M86.805,126.309l.432-.744a.278.278,0,0,1,.408-.084,3.963,3.963,0,0,0,1.81.744,1,1,0,0,0,1.092-.924c0-.612-.516-1.031-1.523-1.439-1.127-.456-2.255-1.175-2.255-2.591a2.4,2.4,0,0,1,2.7-2.3,4.221,4.221,0,0,1,2.4.8.3.3,0,0,1,.072.4l-.455.684a.317.317,0,0,1-.42.144,3.948,3.948,0,0,0-1.667-.66.956.956,0,0,0-1.056.839c0,.564.443.948,1.415,1.344,1.164.467,2.507,1.163,2.507,2.71A2.534,2.534,0,0,1,89.5,127.6a3.862,3.862,0,0,1-2.639-.936C86.757,126.561,86.7,126.5,86.805,126.309Z" fill="#0033a0"/>
        <path id="Path_105" data-name="Path 105" d="M98.946,118.969a4.318,4.318,0,1,1-4.305,4.329A4.309,4.309,0,0,1,98.946,118.969Zm0,7.075A2.758,2.758,0,1,0,96.2,123.3,2.763,2.763,0,0,0,98.946,126.044Z" fill="#0033a0"/>
        <path id="Path_106" data-name="Path 106" d="M106.28,119.185a.225.225,0,0,1,.228-.216h.3l4.989,5.3h.012v-4.954a.228.228,0,0,1,.228-.228h1.1a.236.236,0,0,1,.228.228v8.072a.226.226,0,0,1-.228.216h-.287l-5.014-5.5h-.012v5.157a.227.227,0,0,1-.227.228h-1.092a.236.236,0,0,1-.228-.228Z" fill="#0033a0"/>
        <path id="Path_107" data-name="Path 107" d="M117,119.316a.226.226,0,0,1,.216-.228h2.842a4.2,4.2,0,1,1,0,8.4h-2.842a.226.226,0,0,1-.216-.228Zm2.914,6.705a2.741,2.741,0,0,0,0-5.481h-1.367v5.481Z" fill="#0033a0"/>
        <path id="Path_108" data-name="Path 108" d="M127.292,119.316a.236.236,0,0,1,.228-.228h1.115a.227.227,0,0,1,.227.228V122.5h3.911v-3.179a.227.227,0,0,1,.227-.228h1.1a.236.236,0,0,1,.228.228v7.94a.236.236,0,0,1-.228.228H133a.227.227,0,0,1-.227-.228v-3.31h-3.911v3.31a.227.227,0,0,1-.227.228H127.52a.236.236,0,0,1-.228-.228Z" fill="#0033a0"/>
        <path id="Path_109" data-name="Path 109" d="M137.96,119.316a.228.228,0,0,1,.228-.228h4.881a.228.228,0,0,1,.228.228v.984a.228.228,0,0,1-.228.228h-3.55V122.5h2.963a.236.236,0,0,1,.227.228v1a.228.228,0,0,1-.227.228h-2.963v2.1h3.55a.229.229,0,0,1,.228.228v.984a.228.228,0,0,1-.228.228h-4.881a.228.228,0,0,1-.228-.228Z" fill="#0033a0"/>
        <path id="Path_110" data-name="Path 110" d="M146.455,119.316a.228.228,0,0,1,.228-.228h4.881a.228.228,0,0,1,.228.228v.984a.228.228,0,0,1-.228.228h-3.55V122.5h2.963a.236.236,0,0,1,.227.228v1a.228.228,0,0,1-.227.228h-2.963v2.1h3.55a.228.228,0,0,1,.228.228v.984a.228.228,0,0,1-.228.228h-4.881a.228.228,0,0,1-.228-.228Z" fill="#0033a0"/>
        <path id="Path_111" data-name="Path 111" d="M156.078,120.528h-1.835a.228.228,0,0,1-.227-.228v-.984a.228.228,0,0,1,.227-.228h5.242a.228.228,0,0,1,.227.228v.984a.228.228,0,0,1-.227.228H157.65v6.728a.237.237,0,0,1-.228.228h-1.116a.237.237,0,0,1-.228-.228Z" fill="#0033a0"/>
        <path id="Path_112" data-name="Path 112" d="M161.911,126.309l.432-.744a.278.278,0,0,1,.408-.084,3.969,3.969,0,0,0,1.811.744,1,1,0,0,0,1.092-.924c0-.612-.516-1.031-1.524-1.439-1.127-.456-2.255-1.175-2.255-2.591a2.4,2.4,0,0,1,2.7-2.3,4.226,4.226,0,0,1,2.4.8.3.3,0,0,1,.071.4l-.455.684a.317.317,0,0,1-.42.144,3.948,3.948,0,0,0-1.667-.66.956.956,0,0,0-1.056.839c0,.564.444.948,1.416,1.344,1.164.467,2.506,1.163,2.506,2.71a2.533,2.533,0,0,1-2.758,2.375,3.859,3.859,0,0,1-2.639-.936C161.863,126.561,161.8,126.5,161.911,126.309Z" fill="#0033a0"/>
        <path id="Path_113" data-name="Path 113" d="M171.222,119.148a.2.2,0,0,1,.216-.179h.192a.217.217,0,0,1,.2.119l2.639,5.662h.036l2.639-5.662a.207.207,0,0,1,.2-.119h.191a.2.2,0,0,1,.216.179l1.416,8.06a.209.209,0,0,1-.216.276h-1.092a.258.258,0,0,1-.227-.18l-.708-4.546H176.9l-2.1,4.714a.2.2,0,0,1-.2.132h-.216a.217.217,0,0,1-.2-.132l-2.122-4.714h-.036l-.7,4.546a.232.232,0,0,1-.216.18h-1.079a.219.219,0,0,1-.228-.276Z" fill="#0033a0"/>
        <path id="Path_114" data-name="Path 114" d="M182.143,119.316a.235.235,0,0,1,.227-.228h1.14a.227.227,0,0,1,.227.228v4.906a1.747,1.747,0,1,0,3.491.012v-4.918a.227.227,0,0,1,.227-.228h1.14a.235.235,0,0,1,.227.228v4.99a3.34,3.34,0,0,1-6.679,0Z" fill="#0033a0"/>
        <path id="Path_115" data-name="Path 115" d="M193.457,120.528h-1.835a.227.227,0,0,1-.227-.228v-.984a.227.227,0,0,1,.227-.228h5.241a.228.228,0,0,1,.228.228v.984a.228.228,0,0,1-.228.228h-1.834v6.728a.237.237,0,0,1-.228.228h-1.116a.237.237,0,0,1-.228-.228Z" fill="#0033a0"/>
        <path id="Path_116" data-name="Path 116" d="M199.662,119.316a.236.236,0,0,1,.228-.228h1.139a.228.228,0,0,1,.228.228v4.906a1.746,1.746,0,1,0,3.49.012v-4.918a.228.228,0,0,1,.228-.228h1.139a.235.235,0,0,1,.228.228v4.99a3.34,3.34,0,0,1-6.68,0Z" fill="#0033a0"/>
        <path id="Path_117" data-name="Path 117" d="M209.851,119.316a.227.227,0,0,1,.227-.228h4.881a.229.229,0,0,1,.229.228v.984a.229.229,0,0,1-.229.228h-3.55V122.5h2.963a.237.237,0,0,1,.228.228v1a.228.228,0,0,1-.228.228h-2.963v2.1h3.55a.229.229,0,0,1,.229.228v.984a.229.229,0,0,1-.229.228h-4.881a.227.227,0,0,1-.227-.228Z" fill="#0033a0"/>
        <path id="Path_118" data-name="Path 118" d="M218.346,119.316a.228.228,0,0,1,.227-.228h1.1a.235.235,0,0,1,.227.228v6.728h3.059a.228.228,0,0,1,.228.228v.984a.228.228,0,0,1-.228.228h-4.39a.228.228,0,0,1-.227-.228Z" fill="#0033a0"/>
        <path id="Path_119" data-name="Path 119" d="M225.846,119.316a.228.228,0,0,1,.227-.228h1.1a.235.235,0,0,1,.227.228v6.728h3.059a.228.228,0,0,1,.228.228v.984a.228.228,0,0,1-.228.228h-4.39a.228.228,0,0,1-.227-.228Z" fill="#0033a0"/>
        <path id="Path_120" data-name="Path 120" d="M233.346,119.316a.228.228,0,0,1,.227-.228h4.881a.228.228,0,0,1,.229.228v.984a.228.228,0,0,1-.229.228H234.9V122.5h2.963a.236.236,0,0,1,.228.228v1a.228.228,0,0,1-.228.228H234.9v2.1h3.55a.229.229,0,0,1,.229.228v.984a.228.228,0,0,1-.229.228h-4.881a.228.228,0,0,1-.227-.228Z" fill="#0033a0"/>
      </g>
    </g>
    <g id="Group_26" data-name="Group 26">
      <g id="Group_25" data-name="Group 25">
        <path id="Path_121" data-name="Path 121" d="M99.219,142.1l3.628-5.9v-.03H99.7a.2.2,0,0,1-.19-.189v-.32a.2.2,0,0,1,.19-.19h4.047a.2.2,0,0,1,.191.19v.13l-3.689,5.966v.01h3.3a.19.19,0,0,1,.19.19v.32a.19.19,0,0,1-.19.19H99.409a.2.2,0,0,1-.19-.19Z" fill="#0033a0"/>
        <path id="Path_122" data-name="Path 122" d="M107.019,142.205l3.039-6.726a.179.179,0,0,1,.17-.11h.1a.18.18,0,0,1,.17.11l3.019,6.726a.177.177,0,0,1-.17.26h-.4a.184.184,0,0,1-.17-.11l-.74-1.649h-3.547l-.73,1.649a.184.184,0,0,1-.17.11h-.4A.177.177,0,0,1,107.019,142.205Zm4.748-2.119c-.49-1.089-.97-2.189-1.459-3.278h-.08l-1.46,3.278Z" fill="#0033a0"/>
        <path id="Path_123" data-name="Path 123" d="M117.309,135.549a.188.188,0,0,1,.189-.18h.25l4.508,5.617h.02v-5.327a.19.19,0,0,1,.19-.19h.35a.2.2,0,0,1,.189.19v6.726a.188.188,0,0,1-.189.18h-.18l-4.588-5.727h-.01v5.437a.19.19,0,0,1-.189.19H117.5a.2.2,0,0,1-.189-.19Z" fill="#0033a0"/>
        <path id="Path_124" data-name="Path 124" d="M128.738,136.138H127a.19.19,0,0,1-.189-.19v-.289a.19.19,0,0,1,.189-.19h4.239a.19.19,0,0,1,.189.19v.289a.19.19,0,0,1-.189.19H129.5v6.137a.2.2,0,0,1-.19.19h-.379a.2.2,0,0,1-.19-.19Z" fill="#0033a0"/>
        <path id="Path_125" data-name="Path 125" d="M135.228,135.659a.19.19,0,0,1,.189-.19h3.939a.19.19,0,0,1,.189.19v.289a.19.19,0,0,1-.189.19H136v2.439h2.869a.2.2,0,0,1,.19.19v.29a.19.19,0,0,1-.19.19H136v2.548h3.359a.19.19,0,0,1,.189.19v.29a.19.19,0,0,1-.189.19h-3.939a.19.19,0,0,1-.189-.19Z" fill="#0033a0"/>
        <path id="Path_126" data-name="Path 126" d="M143.848,135.659a.19.19,0,0,1,.189-.19h2.589A2.148,2.148,0,0,1,148.8,137.6a2.229,2.229,0,0,1-1.479,2.038l1.37,2.539a.189.189,0,0,1-.17.29h-.51a.17.17,0,0,1-.16-.09l-1.329-2.648h-1.909v2.548a.2.2,0,0,1-.191.19h-.39a.19.19,0,0,1-.189-.19Zm2.729,3.408a1.435,1.435,0,1,0,0-2.869h-1.94v2.869Z" fill="#0033a0"/>
        <path id="Path_127" data-name="Path 127" d="M158.547,136.908l-.72.56a.152.152,0,0,1-.229-.01l-.19-.21a.156.156,0,0,1,.02-.22l1.4-1.36h.27a.188.188,0,0,1,.18.19v6.417a.188.188,0,0,1-.18.19h-.36a.19.19,0,0,1-.19-.19Z" fill="#0033a0"/>
        <path id="Path_128" data-name="Path 128" d="M164.477,142.005a4.642,4.642,0,0,0,2.568-2.488,2.968,2.968,0,0,1-1.518.449,2.113,2.113,0,0,1-2.15-2.169,2.266,2.266,0,0,1,2.209-2.288c1.619,0,2.329,1.259,2.329,2.848,0,2.659-2.279,3.878-3.288,4.278a.162.162,0,0,1-.219-.1l-.111-.24C164.247,142.175,164.287,142.065,164.477,142.005Zm2.7-3.338c.17-1-.22-2.5-1.589-2.5a1.55,1.55,0,0,0-1.5,1.589,1.525,1.525,0,0,0,1.509,1.559A2.443,2.443,0,0,0,167.175,138.667Z" fill="#0033a0"/>
        <path id="Path_129" data-name="Path 129" d="M171.8,141.4c.08-.07.151-.15.231-.22s.17-.1.249.01a1.831,1.831,0,0,0,1.479.739,1.617,1.617,0,0,0,1.57-1.639,1.4,1.4,0,0,0-1.57-1.439h-1.518a.333.333,0,0,1-.311-.35v-2.639a.19.19,0,0,1,.191-.19h3.018a.191.191,0,0,1,.19.19v.29a.191.191,0,0,1-.19.19H172.6v1.839h1.159c1.51,0,2.309.79,2.309,2.1a2.27,2.27,0,0,1-2.319,2.289,2.379,2.379,0,0,1-1.928-.83C171.688,141.585,171.677,141.515,171.8,141.4Z" fill="#0033a0"/>
        <path id="Path_130" data-name="Path 130" d="M183,135.438a.164.164,0,0,1,.22.1l.11.239c.049.12.009.23-.18.29a4.652,4.652,0,0,0-2.569,2.489,2.969,2.969,0,0,1,1.519-.45,2.112,2.112,0,0,1,2.149,2.169,2.266,2.266,0,0,1-2.209,2.289c-1.619,0-2.329-1.259-2.329-2.849C179.707,137.058,181.987,135.838,183,135.438Zm.54,4.878a1.525,1.525,0,0,0-1.509-1.559,2.441,2.441,0,0,0-1.579.65c-.17,1,.219,2.5,1.588,2.5A1.55,1.55,0,0,0,183.536,140.316Z" fill="#0033a0"/>
      </g>
    </g>
    <g id="Group_29" data-name="Group 29">
      <g id="Group_27" data-name="Group 27">
        <path id="Path_131" data-name="Path 131" d="M206.323,82.106,185.431,57.714V88.957c-3.964,2.072-11.436,5.718-11.883,5.9a14.264,14.264,0,0,1-6.774,1.678,14.943,14.943,0,0,1-10.787-4.655c-.2-.21-.4-.427-.589-.647l-.025-.028q-.277-.324-.537-.659l-4.627,5.472.006.007c.278.319.562.632.857.938a21.952,21.952,0,0,0,7.078,4.965,21.582,21.582,0,0,0,8.624,1.8,21.118,21.118,0,0,0,9.892-2.417c.672-.3,6.182-3.226,8.765-4.559v6.917h6.942V76.533l13.95,16.3,13.887-16.3v27.138h7.034V57.714Z" fill="#00a9e0"/>
        <path id="Path_132" data-name="Path 132" d="M154.836,90.548a16.1,16.1,0,0,1,1.151-20.992,14.835,14.835,0,0,1,17.384-3.1h0q.644.3,1.256.65l4.7-5.558a23.682,23.682,0,0,0-2.893-1.607l0,0h0a21.839,21.839,0,0,0-18.28-.437,21.13,21.13,0,0,0-7.078,4.967,23.321,23.321,0,0,0-4.794,7.258,24.221,24.221,0,0,0-1.739,8.993,23.672,23.672,0,0,0,1.739,8.925,22.624,22.624,0,0,0,3.931,6.37l4.627-5.473Z" fill="#0033a0"/>
      </g>
      <path id="Path_133" data-name="Path 133" d="M118.15,82.106l-4.591,5.363,4.591,5.368,13.9-16.3v16.2h6.993l.02-35.02Z" fill="#0033a0"/>
      <g id="Group_28" data-name="Group 28">
        <path id="Path_134" data-name="Path 134" d="M97.259,57.714V88.675c-3.92,2.052-11.576,6.2-12.033,6.387a14.113,14.113,0,0,1-6.771,1.474A14.963,14.963,0,0,1,67.66,91.879a16.127,16.127,0,0,1,0-22.326,14.837,14.837,0,0,1,17.383-3.1l.01-.022v.022h0q.645.3,1.256.65l4.7-5.558a23.222,23.222,0,0,0-2.894-1.606h0l-.015.012,0-.012a21.83,21.83,0,0,0-18.276-.437,21.149,21.149,0,0,0-7.073,4.968,23.259,23.259,0,0,0-4.8,7.256,24.264,24.264,0,0,0-1.736,8.991,23.713,23.713,0,0,0,1.736,8.928,22.741,22.741,0,0,0,4.8,7.313,21.993,21.993,0,0,0,7.073,4.966,21.593,21.593,0,0,0,8.63,1.8,21.141,21.141,0,0,0,9.889-2.416c.683-.3,6.4-3.335,8.915-4.639v7h6.947V76.533l9.353,10.936,4.591-5.364Z" fill="#e10600"/>
      </g>
    </g>
  </g>
</svg>
