<?xml version="1.0" encoding="UTF-8" standalone="no"?>
<svg
   xmlns:dc="http://purl.org/dc/elements/1.1/"
   xmlns:cc="http://creativecommons.org/ns#"
   xmlns:rdf="http://www.w3.org/1999/02/22-rdf-syntax-ns#"
   xmlns:svg="http://www.w3.org/2000/svg"
   xmlns="http://www.w3.org/2000/svg"
   viewBox="0 0 2597.52 2597.52"
   height="2597.52"
   width="2597.52"
   xml:space="preserve"
   id="svg2"
   version="1.1"><metadata
     id="metadata8"><rdf:RDF><cc:Work
         rdf:about=""><dc:format>image/svg+xml</dc:format><dc:type
           rdf:resource="http://purl.org/dc/dcmitype/StillImage" /></cc:Work></rdf:RDF></metadata><defs
     id="defs6" /><g
     transform="matrix(1.3333333,0,0,-1.3333333,0,2597.52)"
     id="g10"><g
       transform="scale(0.1)"
       id="g12"><path
         id="path14"
         style="fill:#9cb022;fill-opacity:1;fill-rule:nonzero;stroke:none"
         d="m 14922.6,11479.8 c 104.5,-115.3 85.2,-526.6 166.4,-539.9 81.2,-13.2 227.9,303.1 372.9,357.7 145.1,54.7 479.3,22.2 499.3,82.7 20,60.4 -228.5,264.2 -244.7,423.2 -18.4,180.8 190.8,541.4 155.5,577.7 -35.3,36.4 -296.8,-146 -606.9,-139.5 -310.1,6.5 -359.8,221.6 -444.8,194.3 -84.9,-27.2 18.7,-378.8 -29.6,-485.4 -48.3,-106.5 -375.2,-232.4 -353.5,-330 21.7,-97.6 380.8,-25.6 485.4,-140.8" /><path
         id="path16"
         style="fill:#9cb022;fill-opacity:1;fill-rule:nonzero;stroke:none"
         d="m 9087.26,15386.9 c 30.19,-40.3 179.88,67.3 251.74,36.2 71.86,-31.1 148.39,-223.7 188.38,-212.9 39.98,10.8 41.51,186.2 96.66,241.4 55.16,55.2 215.07,109.7 211.68,141.5 -3.39,31.9 -159.59,73.7 -200.02,143.2 -45.98,79.1 -24.97,287.8 -48.69,297.1 -23.72,9.4 -105.72,-128.5 -249.23,-190 -143.51,-61.4 -210.91,26.9 -244.22,-3.2 -33.3,-30.1 87.21,-169.8 87.21,-228.7 0,-58.8 -123.71,-184.4 -93.51,-224.6" /><path
         id="path18"
         style="fill:#9cb022;fill-opacity:1;fill-rule:nonzero;stroke:none"
         d="m 12275.6,14842.1 c 35.1,-66.1 280,57.7 378.5,-4.6 98.6,-62.2 166.9,-363.1 228.1,-356.4 61.3,6.7 103.9,264.4 197.7,332.8 93.8,68.5 341.5,111.9 343.9,159.5 2.3,47.7 -217.8,145.1 -261.3,256.6 -49.4,126.9 29.4,429.1 -3.3,448.2 -32.8,19.1 -185,-164.8 -410.2,-222.1 -225.2,-57.4 -304,87.9 -359.9,51.3 -55.9,-36.7 89.2,-269.8 75.6,-356.3 -13.5,-86.6 -224.3,-242.8 -189.1,-309" /><g
         transform="scale(1.19515)"
         id="g20"><path
           id="path22"
           style="fill:#9cb022;fill-opacity:1;fill-rule:nonzero;stroke:none"
           d="m 14410.5,7416.71 c -53.4,-73.72 -108.5,-148.94 -185,-200.48 -132.5,-115.13 -282.6,-210.69 -446.7,-273.77 -122.8,-42.09 -256.2,-41.92 -383,-21.25 -105,17.32 -208,66.1 -277.1,148.35 -65.5,78.22 -72,185.41 -67.5,282.8 120.5,-26.86 253.9,-36.56 353.5,-116.89 40.8,-25.43 91.1,-16.48 135.8,-10.04 105.6,18.16 205.6,59.99 300.8,107.69 67.4,36.39 138.5,71.12 189.5,129.94 32.2,20.58 59.1,48.11 80.3,79.91 77.5,111.2 141.9,231.6 190.5,358.19 16.2,40.2 22.8,83.63 22.3,126.8 -9.8,0.94 -29.2,2.94 -39,3.87 -67.9,68.03 -143.5,127.5 -215.7,190.85 69.8,59.61 152.7,119.48 249.1,114.27 124.7,-6.55 237.9,-93.42 287.1,-206.75 42.7,-90.74 33.8,-195.12 12.1,-290.12 -40,-153.03 -115.1,-295.27 -207,-423.37 z m -507.4,-1776.76 c -87.1,-129.36 -238.2,-194.71 -385.4,-227.67 -122.6,-28.62 -249.1,-12.72 -372.1,3.85 -177,27.1 -342.4,126.67 -442.4,276.28 -129.6,201.65 -160.4,446.05 -173,680.33 -24.1,157.47 31.4,309.41 84.7,454.42 106.4,-83.51 194.8,-197.55 218.8,-333.43 33.3,-204.49 19.6,-426.06 125,-611.97 56.5,-104.43 178.4,-144.59 289.1,-157.56 127.6,-12.88 270.4,-7.36 376.4,73.72 81.2,80.66 103.7,199.55 119.2,308.33 14.3,100.82 4.8,204.49 33.4,303.14 25,96.22 79.2,180.81 133.9,262.48 75.3,-105.35 151.8,-219.22 159.6,-352.68 10.3,-234.53 -16,-489.06 -167.2,-679.24 z m -473.9,-1477.64 c -127.7,-123.25 -297.1,-200.48 -473.1,-220.72 -193.4,-33.89 -399,32.88 -541.1,166.84 -107,96.72 -168,237.71 -179,380.45 -13,160.57 29,337.2 154.8,446.14 78.7,68.27 188,69.11 286.4,65.85 -29.3,-112.38 -52.8,-227.17 -99.8,-334.1 -42.7,-103.84 -32.9,-238.3 50.7,-319.54 59.9,-55.73 140.1,-89.11 221.7,-93.38 127.5,5.85 257.7,46.6 352.4,135.21 47,45.68 66.7,111.45 77.2,174.37 14.7,86.35 -4.7,174.54 12.1,260.64 15.2,88.19 60.3,166.92 104.7,243.23 76.5,-74.55 166.1,-148.43 191.1,-257.79 55.9,-223.15 0.2,-477.68 -158.1,-647.2 z m -981.8,-1449.27 c -134.3,-116.8 -314.1,-184.99 -492.9,-173.2 -156.3,-11.38 -310.3,49.29 -435.4,139.48 -185.2,147.85 -309.7,370.5 -333.9,606.62 -7.9,101.32 10.9,210.93 76.3,291.51 65.7,79.49 174.8,109.94 274.8,97.39 -9.8,-37.9 -20.5,-75.89 -27.1,-114.79 -12,-71.12 1.4,-144.17 -16.3,-214.79 -20.2,-77.65 24.1,-150.61 63.9,-213.78 59.2,-89.94 134.5,-168.85 216.9,-237.62 36.5,-26.45 77.7,-64.18 126.6,-50.96 107.6,15.23 225.2,21.17 314.2,91.2 83.9,67.36 84.6,198.47 32.4,285.15 -59.7,93.97 -95.2,199.98 -138.1,301.89 87.4,11.63 181.8,24.77 264.4,-15.06 106.9,-51.96 189.7,-154.63 210,-272.77 40.4,-180.81 3.8,-389.82 -135.8,-520.27 z m -1670.1,1213.65 c -64.9,-7.36 -126.2,20.92 -185.5,43.01 -187.1,79.24 -365.8,187.26 -504.9,337.03 -42.2,44.51 -78.6,95.13 -103.33,151.45 -34.39,71.45 -27.27,153.53 -25.27,230.42 8.79,138.57 140.2,241.9 273.9,245.91 7.3,-50.03 2.6,-100.9 10,-151.19 6.6,-53.97 25.9,-106.01 25.5,-161.07 -2,-53.71 40.6,-92.45 76.3,-126.42 102.5,-89.36 219.1,-162.08 342.4,-219.31 39,-16.65 79.7,-37.9 123.8,-31.62 80.3,7.27 172.7,9.28 232.4,72.29 50.4,57.31 47.5,139.9 45.3,211.52 -3.2,107.85 -44.5,212.77 -31.1,321.3 7.3,72.2 34.2,140.23 59,207.67 107.3,-59.58 214.9,-140.07 249.5,-264.07 43.3,-176.13 72.9,-369.41 -0.6,-542.11 -55,-162.48 -210.2,-272.59 -372.8,-309.58 -70.3,-18.49 -143.2,-8.45 -214.6,-15.23 z M 9212.46,5770.56 c -65.1,55.3 -138.9,104.67 -181.23,181.06 -102,175.55 -112.04,404.47 -20.17,585.95 29.12,63.76 93.63,96.22 151.61,128.69 52.55,28.87 110.87,50.12 171.53,48.86 103.42,1.26 197.38,-49.28 286.07,-96.89 -96.05,-82.83 -204.32,-149.77 -305.57,-225.66 -57.81,-38.4 -52.54,-117.64 -41.33,-177.47 32.3,-112.87 125.51,-197.71 226.92,-250.51 89.69,-41.42 189.26,-61.83 287.91,-62.5 151.53,17.32 304.8,61.58 428.8,153.37 101.5,84.51 169.2,226.58 133.1,358.61 -28.2,123.08 -42.9,248.67 -64,373.1 124.4,-25.19 250.8,-83.59 319.5,-195.38 52.7,-92.96 91.9,-201.23 71.3,-309.67 -34.2,-206.75 -140.7,-413.58 -323.3,-525.7 -172.5,-98.9 -366.93,-161.91 -565.82,-174.21 -204.49,1.68 -413.92,59.49 -575.32,188.35 z M 8010.69,7161.84 c -220.65,47.28 -414.17,178.81 -569.73,338.7 -138.59,131.2 -229.88,302.39 -363.92,437.78 -110.79,125.89 -236.95,238.42 -376.48,331.71 -58.54,41.43 -123.62,72.7 -182.56,113.33 214.23,42.77 447.45,16.31 633.08,-104.51 176.28,-104.78 294.02,-277.05 416.84,-435.92 142.06,-177.22 326.1,-350.83 563.04,-373.93 361,-16.23 721.29,36.98 1072.63,116.39 115.72,19.07 226.16,59.32 338.12,92.7 491.19,150.95 980.29,309.68 1477.19,440.79 89,20.98 176.8,48.64 267.6,61.61 141.7,22.31 283.7,51.58 427.9,46.5 204.7,-3.06 401.5,-69.63 590.1,-143.67 -298.3,-95.55 -606,-156.39 -913.7,-211.95 -172.5,-25.26 -338.9,-78.9 -507.2,-122.41 -487.2,-141.82 -970.06,-298.2 -1456.69,-441.86 -346.65,-82 -698.82,-152.45 -1056.02,-160.65 -120.04,-7.03 -242.06,-10.96 -360.2,15.39 z M 6164.01,8769.35 h -186.05 v 1094.43 h 246.25 l 468.78,-846.35 v 846.35 h 186.05 V 8769.35 h -242.59 l -472.44,857.31 z m -208.29,1470.35 h -226.66 v 977.9 l -321.64,-669.2 h -179.18 l -310.85,669.2 v -977.9 h -226.65 v 1295.2 h 308.69 l 325.96,-727.4 321.64,727.4 h 308.69 z m -158.3,-1470.35 h -756.98 v 1094.43 h 742.38 v -169.63 h -539.91 v -286.38 h 516.2 v -153.22 h -516.2 v -315.56 h 554.51 z m -961.26,0 h -204.3 v 472.44 h -503.43 v -472.44 h -202.48 v 1094.43 h 202.48 v -452.36 h 503.43 v 452.36 h 204.3 z m -1490.24,-14.59 c -333.8,0 -534.45,222.53 -534.45,565.46 0,330.15 189.7,558.16 523.51,558.16 215.23,0 373.93,-82.09 454.18,-259.02 l -171.46,-78.43 c -49.24,111.26 -153.22,171.45 -275.42,171.45 -207.95,0 -321.04,-160.51 -321.04,-392.16 0,-238.96 127.68,-399.47 330.15,-399.47 118.57,0 217.07,52.9 271.79,145.92 l 171.46,-85.73 c -87.56,-147.75 -242.6,-226.18 -448.72,-226.18 z m -1109,-3.65 c -330.15,0 -510.73,136.81 -528.97,434.13 h 206.12 c 20.06,-189.71 155.04,-255.37 321.02,-255.37 166,0 264.5,69.31 264.5,193.35 0,353.87 -755.16,122.21 -755.16,616.53 0,237.13 164.16,397.65 446.89,397.65 308.27,0 477.9,-158.7 503.44,-426.84 h -207.94 c -18.24,164.17 -120.39,248.08 -290.03,248.08 -178.76,0 -242.6,-96.67 -242.6,-198.82 0,-331.98 756.98,-102.16 756.98,-618.35 0,-242.61 -180.57,-390.36 -474.25,-390.36 z m 275.71,3107.59 c 284.95,0 487.85,-105.7 617.38,-284.9 l -187.8,-142.5 c -107.94,149 -254.73,213.7 -431.74,213.7 -310.85,0 -518.08,-226.6 -518.08,-595.8 0,-388.5 202.92,-619.5 518.08,-619.5 148.95,0 300.06,54 379.93,151.1 v 284.9 h -297.89 v 207.3 h 543.98 v -546.2 C 3015.6,10339 2795.41,10218.1 2504,10218.1 c -487.87,0 -766.34,321.7 -766.34,818.2 0,498.6 291.43,822.4 774.97,822.4 z m 960.61,-323.8 h 878.59 v -200.7 h -638.97 v -338.9 h 610.9 v -181.4 h -610.9 v -373.4 h 656.24 v -200.8 h -895.86 z m 2836.5,0 h 878.59 v -200.7 h -638.97 v -338.9 h 610.91 v -181.4 h -610.91 v -373.4 h 656.24 v -200.8 h -895.86 z m 1065.74,1889.8 c 51.39,46.5 155.42,-89.7 376.91,5.1 221.48,94.7 348.03,307.6 384.64,293.2 36.61,-14.4 4.18,-336.5 75.14,-458.6 62.4,-107.3 303.47,-171.8 308.75,-221 5.18,-49.1 -241.62,-133.3 -326.74,-218.4 -85.13,-85.1 -87.48,-355.9 -149.19,-372.6 -61.7,-16.6 -179.82,280.6 -290.72,328.6 -110.9,48 -341.92,-118 -388.53,-55.9 -46.6,62.1 144.33,255.9 144.33,346.7 0,90.9 -185.98,306.4 -134.59,352.9 z m 220.41,-4514.9 c 96.67,0 195.17,34.66 249.89,98.5 v 187.89 h -204.29 v 147.74 h 388.53 v -384.88 c -82.09,-129.51 -235.31,-204.29 -443.25,-204.29 -344.74,0 -541.75,224.36 -541.75,563.63 0,333.8 197.01,559.99 539.92,559.99 231.66,0 364.82,-83.91 446.9,-213.42 l -171.46,-83.9 c -62.02,89.37 -155.05,131.32 -273.61,131.32 -202.47,0 -331.98,-144.09 -331.98,-393.99 0,-249.89 125.86,-408.59 341.1,-408.59 z m 997.73,1329.9 h -287.11 l -559.09,1014.6 v -1014.6 h -220.19 v 1295.2 h 291.43 l 554.74,-1001.6 v 1001.6 h 220.22 z m 346.57,-831.93 v -153.22 h -516.25 v -315.56 h 554.57 v -169.64 h -757 v 1094.43 h 742.36 v -169.63 h -539.93 v -286.38 z m 1119.91,456.01 V 8769.35 h -242.62 l -472.4,857.31 v -857.31 h -186 v 1094.43 h 246.24 l 468.73,-846.35 v 846.35 z m -523.08,1688.42 c 274.11,0 431.74,-99.3 528.88,-252.6 l -202.98,-99.3 c -73.38,105.8 -183.49,155.5 -323.81,155.5 -239.55,0 -392.84,-170.6 -392.84,-466.3 0,-295.8 148.94,-483.6 403.64,-483.6 114.46,0 231.01,41.1 295.77,116.6 v 222.4 h -241.81 v 174.8 h 459.83 v -455.5 c -97.11,-153.2 -278.43,-241.7 -524.59,-241.7 -407.98,0 -641.09,265.5 -641.09,667 0,395 233.11,662.7 639,662.7 z m 525.38,1728.1 c 86.3,56.6 207.9,-167.6 555.5,-79.1 347.5,88.4 582.5,372.3 633,342.8 50.6,-29.6 -71.2,-495.9 5.1,-691.7 67.2,-172.1 406.9,-322.5 403.3,-396 -3.6,-73.5 -385.9,-140.5 -530.7,-246.1 -144.7,-105.7 -210.5,-503.4 -305.1,-513.7 -94.5,-10.3 -199.9,454 -352,550.1 -152.1,96.1 -530.01,-95 -584.23,7.1 -54.31,102 271.13,343.2 291.93,476.7 20.9,133.6 -203.07,493.4 -116.8,549.9 z m 751.8,-7495.02 c -1.1,129.11 112.1,212.19 203.1,284.49 52.2,-92.04 87,-193.54 104.4,-297.71 4.7,-31.29 -17.1,-61.5 -9,-92.37 39.4,-42.92 105.6,-33.3 158.4,-33.38 137.5,12.8 282.5,35.22 397.4,117.55 117.1,65.94 230.7,144.59 310.6,254.61 -135.8,35.56 -268.3,92.88 -370.1,191.78 72.5,57.73 145.5,124.17 238.9,143.92 151.4,19.91 315.1,-33.14 415.9,-150.61 62.6,-100.91 61,-236.79 -2.4,-337.2 -97.2,-155.71 -247.4,-269.5 -403.6,-361.21 -144.5,-83.42 -301,-148.76 -466.3,-176.04 -81.8,-18.83 -168.8,-41 -251,-10.96 -137.5,47.36 -254.9,153.28 -320.5,282.39 -33.9,57.98 -3.4,122.99 -5.8,184.74 z m 1304.2,5120.92 c 131.2,42 207.8,-289.9 686.5,-299.9 478.6,-10.1 882.1,271.4 936.7,215.3 54.5,-56 -268.4,-612.5 -240.1,-891.58 25,-245.43 408.4,-559.93 377.6,-653.19 -30.8,-93.27 -546.6,-43.23 -770.5,-127.53 -223.9,-84.28 -450.1,-572.52 -575.6,-552.06 -125.3,20.47 -95.3,655.28 -256.8,833.16 -161.3,177.87 -715.6,66.76 -749.1,217.38 -33.4,150.64 471.1,344.89 545.6,509.32 74.5,164.4 -85.4,707.1 45.7,749.1 z M 8150.18,16300.3 C 3648.95,16300.3 0,12651.4 0,8150.16 0,3648.9 3648.95,0 8150.18,0 c 4501.22,0 8150.12,3648.9 8150.12,8150.16 0,4501.24 -3648.9,8150.14 -8150.12,8150.14" /></g></g></g></svg>