<svg xmlns="http://www.w3.org/2000/svg" viewBox="0 0 228.88 101.09"><defs><clipPath id="clip-path" transform="translate(-.18 -.18)"><path class="cls-1" d="M0 0h229.25v101.46H0z"/></clipPath><style>.cls-1{fill:none}.cls-2{clip-path:url(#clip-path)}.cls-3{fill:#fff}</style></defs><g id="Ebene_2" data-name="Ebene 2"><g id="Ebene_1-2" data-name="Ebene 1"><path class="cls-1" d="M16.92 16.19v.73h-.73m-1.41 0H1.43"/><g class="cls-2"><path class="cls-1" d="M.73 16.92H0v-.73m0-1.41V1.43m0-.7V0h.73m1.4 0h13.36m.7 0h.73v.73"/></g><path class="cls-1" d="M16.92 2.13v13.36"/><g class="cls-2"><path class="cls-1" d="M16.92 100.37v.72h-.73m-1.41 0H1.43m-.7 0H0v-.72m0-1.41V85.61m0-.7v-.73h.73"/></g><path class="cls-1" d="M2.13 84.18h13.36m.7 0h.73v.73m0 1.4v13.35m211.96-83.47v.73h-.72m-1.41 0H213.4m-.7 0h-.73v-.73m0-1.41V1.43"/><g class="cls-2"><path class="cls-1" d="M211.97.73V0h.72m1.41 0h13.35m.71 0h.72v.73"/></g><path class="cls-1" d="M228.88 2.13v13.36"/><g class="cls-2"><path class="cls-1" d="M228.88 100.37v.72h-.72m-1.41 0H213.4m-.7 0h-.73v-.72"/></g><path class="cls-1" d="M211.97 98.96V85.61m0-.7v-.73h.72m1.41 0h13.35m.71 0h.72v.73m0 1.4v13.35"/><g class="cls-2"><path class="cls-1" d="M.73 0H0v.73m0 1.46v97.45m0 .73v.72h.73m1.45 0h225.25m.73 0h.72v-.72"/></g><path class="cls-1" d="M228.88 98.9V1.46"/><g class="cls-2"><path class="cls-1" d="M228.88.73V0h-.72m-1.45 0H1.45"/></g><path class="cls-1" d="M5.55 8.71a3.67 3.67 0 01-.07.77 1.78 1.78 0 01-.22.6 1 1 0 01-.41.39 1.25 1.25 0 01-.61.13 1.32 1.32 0 01-.59-.12 1 1 0 01-.38-.36 1.86 1.86 0 01-.2-.59A4.87 4.87 0 013 8.72 4.63 4.63 0 013.07 8a1.79 1.79 0 01.23-.6 1 1 0 01.4-.4 1.28 1.28 0 01.61-.14A1.17 1.17 0 014.9 7a.94.94 0 01.38.36 1.64 1.64 0 01.21.59 4.79 4.79 0 01.06.76zm-.5 0v-.49A3.24 3.24 0 005 7.86a1.63 1.63 0 00-.1-.29.62.62 0 00-.15-.2.45.45 0 00-.19-.11.93.93 0 00-.25 0 .61.61 0 00-.39.12.76.76 0 00-.24.31 1.94 1.94 0 00-.11.46 5.22 5.22 0 000 .58 4.72 4.72 0 000 .7 1.66 1.66 0 00.13.47.56.56 0 00.24.26.63.63 0 00.35.08.64.64 0 00.28 0 .48.48 0 00.2-.14.91.91 0 00.15-.23A1.32 1.32 0 005 9.48a1.78 1.78 0 000-.35c0-.13.05-.25.05-.39zm1.75 1.43a.91.91 0 010 .17.68.68 0 010 .14 1.39 1.39 0 01-.06.13l-.08.13-.39.58h-.38l.38-.78v-.37a.41.41 0 010-.12.18.18 0 01.05-.02h.42a.18.18 0 010 .07.41.41 0 01.06.07zm3.01-.77a1.38 1.38 0 01-.1.52 1 1 0 01-.28.39 1.18 1.18 0 01-.44.24 1.61 1.61 0 01-.56.08 1.67 1.67 0 01-.32 0l-.27-.06-.2-.07h-.09a.13.13 0 010-.06v-.18a.14.14 0 010-.06h.09l.16.08.25.08a1.75 1.75 0 00.35 0 1.29 1.29 0 00.35 0A.59.59 0 009 10a.55.55 0 00.18-.24.78.78 0 00.07-.35.79.79 0 00-.06-.32.46.46 0 00-.17-.22.71.71 0 00-.29-.13 1.61 1.61 0 00-.42-.05h-.53a.16.16 0 01-.11 0 .23.23 0 010-.14V7.06a.2.2 0 010-.14.16.16 0 01.12 0h1.73a.14.14 0 010 .06.31.31 0 010 .1.35.35 0 010 .16H8.16v1h.43a1.69 1.69 0 01.53.08 1.07 1.07 0 01.38.21.82.82 0 01.23.34 1.18 1.18 0 01.08.5zm4.49 1.01a.31.31 0 010 .09.06.06 0 010 .06.12.12 0 01-.09 0h-.38L13 9l-.82 1.46h-.44a.06.06 0 010-.06.16.16 0 010-.09l1-1.69-.95-1.64a.31.31 0 01-.05-.1.07.07 0 010-.06h.46l.8 1.5.78-1.32h.43a.07.07 0 010 .06.26.26 0 010 .1l-.95 1.62zm203.22-1.67a3.67 3.67 0 01-.07.77 1.78 1.78 0 01-.22.6 1 1 0 01-.41.39 1.48 1.48 0 01-1.19 0 1 1 0 01-.39-.36 1.86 1.86 0 01-.2-.59 4.87 4.87 0 01-.06-.81A4.63 4.63 0 01215 8a1.79 1.79 0 01.23-.6 1 1 0 01.4-.39 1.28 1.28 0 01.61-.14 1.17 1.17 0 01.59.13.94.94 0 01.38.36 1.64 1.64 0 01.21.59 4.79 4.79 0 01.1.76zm-.5 0v-.49a2 2 0 00-.06-.39 1.63 1.63 0 00-.1-.29.62.62 0 00-.15-.2.45.45 0 00-.19-.11.87.87 0 00-.25 0 .61.61 0 00-.39.12.67.67 0 00-.23.31 1.55 1.55 0 00-.12.46 5.22 5.22 0 000 .58 4.72 4.72 0 000 .7 1.66 1.66 0 00.13.47.61.61 0 00.24.26.65.65 0 00.35.08.64.64 0 00.28 0 .48.48 0 00.2-.14.91.91 0 00.15-.23 1.32 1.32 0 00.09-.3 2.94 2.94 0 000-.35c.03-.19.03-.31.03-.45zm1.75 1.43a.91.91 0 010 .17.68.68 0 010 .14 1.39 1.39 0 01-.06.13l-.08.13-.39.58h-.28l.38-.78v-.37a.41.41 0 010-.12.18.18 0 010-.07h.42a.18.18 0 010 .07.41.41 0 01.01.12zm3.01-.77a1.38 1.38 0 01-.1.52 1 1 0 01-.28.39 1.11 1.11 0 01-.44.24 1.61 1.61 0 01-.56.08 1.67 1.67 0 01-.32 0l-.27-.06-.2-.07h-.09v-.24a.14.14 0 010-.06h.09l.16.08.25.08a1.75 1.75 0 00.35 0 1.29 1.29 0 00.35 0A.59.59 0 00221 10a.55.55 0 00.18-.24.78.78 0 00.07-.35.79.79 0 00-.06-.32.46.46 0 00-.17-.22.71.71 0 00-.29-.13 1.61 1.61 0 00-.42-.05h-.53a.16.16 0 01-.11 0 .23.23 0 010-.14V7.06a.2.2 0 01.05-.14.17.17 0 01.13 0h1.67a.14.14 0 010 .06.31.31 0 010 .1.35.35 0 010 .16h-1.39v1h.43a1.69 1.69 0 01.53.08 1.07 1.07 0 01.38.21.82.82 0 01.23.34 1.18 1.18 0 01.08.5zm4.49 1.01a.31.31 0 010 .09.06.06 0 010 .06.12.12 0 01-.09 0h-.38L224.94 9l-.82 1.46h-.49a.06.06 0 010-.06.31.31 0 010-.09l1-1.69-.95-1.64a.31.31 0 01-.05-.1.07.07 0 010-.06h.46a.05.05 0 01.05 0l.86 1.5.75-1.32h.35a.13.13 0 01.08 0 .07.07 0 010 .06.26.26 0 010 .1l-.95 1.62zM5.55 92.74a3.67 3.67 0 01-.07.77 1.76 1.76 0 01-.22.61 1.07 1.07 0 01-.41.38 1.15 1.15 0 01-.61.14 1.32 1.32 0 01-.59-.12 1.09 1.09 0 01-.38-.36 1.84 1.84 0 01-.2-.6 4.74 4.74 0 01-.06-.8 4.54 4.54 0 01.06-.76 1.64 1.64 0 01.23-.6 1 1 0 01.4-.4 1.28 1.28 0 01.61-.14 1.29 1.29 0 01.59.14 1 1 0 01.38.37 1.58 1.58 0 01.21.59 4.74 4.74 0 01.06.78zm-.5 0v-.5A3.38 3.38 0 005 91.9a1.39 1.39 0 00-.1-.29.62.62 0 00-.15-.2.45.45 0 00-.19-.11.66.66 0 00-.25 0 .67.67 0 00-.39.11.8.8 0 00-.24.32 1.83 1.83 0 00-.11.46 5.22 5.22 0 000 .58 4.58 4.58 0 000 .69 1.74 1.74 0 00.13.48.61.61 0 00.24.26.72.72 0 00.35.08.82.82 0 00.28 0 .43.43 0 00.2-.15.86.86 0 00.15-.22 1.32 1.32 0 00.09-.3 1.87 1.87 0 000-.35c-.01-.26.04-.35.04-.48zm1.75 1.44a.81.81 0 010 .16.59.59 0 010 .14.52.52 0 01-.06.13l-.08.14-.39.58h-.34l.38-.79v-.36a.41.41 0 010-.12.18.18 0 01.01-.06h.42a.18.18 0 010 .07.41.41 0 01.06.11zm3.01-.77a1.42 1.42 0 01-.1.52 1.21 1.21 0 01-.28.39 1.55 1.55 0 01-.44.24 1.89 1.89 0 01-.56.08h-.32l-.27-.06-.2-.07a.17.17 0 01-.09-.06.13.13 0 010-.06v-.18a.11.11 0 010-.06.16.16 0 01.09 0 .84.84 0 00.16.07 1.05 1.05 0 00.25.08 1.2 1.2 0 00.35 0 1.29 1.29 0 00.35 0 .58.58 0 00.25-.25.55.55 0 00.18-.24.8.8 0 00.07-.36.75.75 0 00-.06-.31.46.46 0 00-.17-.22.71.71 0 00-.29-.14 1.66 1.66 0 00-.42 0h-.49a.16.16 0 01-.11 0 .25.25 0 010-.15V91.1a.2.2 0 010-.14.17.17 0 01.12 0h1.64a.14.14 0 010 .07.28.28 0 010 .09.32.32 0 010 .16s0 .06-.07.06H8.16v1h.43a1.69 1.69 0 01.53.08 1.07 1.07 0 01.38.21.86.86 0 01.23.33 1.23 1.23 0 01.08.45zm4.49 1a.34.34 0 010 .1.06.06 0 010 .06h-.39L13 93.05l-.82 1.47h-.44a.06.06 0 010-.06.19.19 0 010-.1l1-1.69-.95-1.63a.45.45 0 01-.05-.1.06.06 0 010-.06h.46l.8 1.48.78-1.36h.43v.06a.34.34 0 010 .1l-.95 1.62zm203.22-1.67a3.67 3.67 0 01-.07.77 1.76 1.76 0 01-.22.61 1.07 1.07 0 01-.41.38 1.15 1.15 0 01-.61.14 1.25 1.25 0 01-.58-.12 1 1 0 01-.39-.36 1.84 1.84 0 01-.2-.6 4.74 4.74 0 01-.06-.8A4.54 4.54 0 01215 92a1.64 1.64 0 01.23-.6 1 1 0 01.4-.39 1.45 1.45 0 011.2 0 1 1 0 01.38.37 1.58 1.58 0 01.21.59 4.74 4.74 0 01.1.77zm-.5 0v-.5a2 2 0 00-.06-.38 1.39 1.39 0 00-.1-.29.62.62 0 00-.15-.2.45.45 0 00-.19-.11.62.62 0 00-.25 0 .67.67 0 00-.39.11.7.7 0 00-.23.32 1.47 1.47 0 00-.12.46 5.22 5.22 0 000 .58 4.58 4.58 0 000 .69 1.74 1.74 0 00.13.48.68.68 0 00.24.26.75.75 0 00.35.08.82.82 0 00.28 0 .43.43 0 00.2-.15.86.86 0 00.15-.22 1.32 1.32 0 00.09-.3 3.27 3.27 0 000-.35c.03-.22.03-.31.03-.44zm1.75 1.44a.81.81 0 010 .16.59.59 0 010 .14.52.52 0 01-.06.13l-.08.14-.39.58H218l.38-.79v-.36a.41.41 0 010-.12.18.18 0 010-.07h.42a.18.18 0 010 .07.41.41 0 01-.03.12zm3.01-.77a1.42 1.42 0 01-.1.52 1.21 1.21 0 01-.28.39 1.43 1.43 0 01-.44.24 1.89 1.89 0 01-.56.08h-.32l-.27-.06-.2-.07a.17.17 0 01-.09-.06v-.24a.11.11 0 010-.06.16.16 0 01.09 0 .84.84 0 00.16.07 1.23 1.23 0 00.25.08 1.2 1.2 0 00.35 0 1.29 1.29 0 00.35 0 .58.58 0 00.27-.14.55.55 0 00.18-.24.8.8 0 00.07-.36.75.75 0 00-.06-.31.46.46 0 00-.17-.22.71.71 0 00-.29-.14 1.66 1.66 0 00-.42 0h-.53a.16.16 0 01-.11 0 .25.25 0 010-.15V91.1a.2.2 0 01.05-.14.17.17 0 01.13 0h1.67a.14.14 0 010 .07.28.28 0 010 .09.32.32 0 010 .16s0 .06-.07.06h-1.32v1h.43a1.69 1.69 0 01.53.08 1.07 1.07 0 01.38.21.86.86 0 01.23.33 1.23 1.23 0 01.09.45zm4.49 1a.34.34 0 010 .1.06.06 0 010 .06h-.47l-.82-1.47-.82 1.47h-.49a.06.06 0 010-.06.34.34 0 010-.1l1-1.69-.95-1.63a.45.45 0 01-.05-.1.06.06 0 010-.06h.51l.79 1.38.78-1.38h.43v.06a.34.34 0 010 .1l-.95 1.62z" transform="translate(-.18 -.18)"/><path class="cls-1" d="M16.92 16.92h195.04v67.45H16.92z"/><path class="cls-3" d="M76.57 77.83a.18.18 0 01.19-.18h.65a.19.19 0 01.19.18v5.8h2.67a.19.19 0 01.19.19v.54a.19.19 0 01-.19.19h-3.51a.19.19 0 01-.19-.19zm12.82 0a.19.19 0 01.19-.18h.66a.18.18 0 01.19.18v4.08a1.65 1.65 0 103.29 0v-4.1a.18.18 0 01.19-.18h.66a.19.19 0 01.19.18V82a2.69 2.69 0 01-5.37 0zM106.2 81l-2-3.09a.18.18 0 01.17-.28h.84a.18.18 0 01.16.09l1.39 2.36 1.41-2.36a.17.17 0 01.15-.09h.84a.18.18 0 01.17.28l-2 3.09 2 3.26a.18.18 0 01-.17.28h-.76a.2.2 0 01-.17-.09l-1.54-2.52-1.52 2.52a.22.22 0 01-.17.09h-.76c-.18 0-.26-.15-.18-.28zm12.15-3.17a.18.18 0 01.19-.18h3.94a.18.18 0 01.19.18v.55a.19.19 0 01-.19.19h-3.11v2H122a.2.2 0 01.19.19v.55a.19.19 0 01-.19.19h-2.63v2.12h3.11a.19.19 0 01.19.19v.54a.19.19 0 01-.19.19h-3.94a.19.19 0 01-.19-.19zm14.12-.14a.19.19 0 01.18-.14h.16a.2.2 0 01.16.1l2.06 5 2.06-5a.18.18 0 01.16-.1h.16a.19.19 0 01.18.14l1.21 6.63c0 .14 0 .23-.17.23H138a.21.21 0 01-.18-.14l-.71-4.41-1.78 4.54a.17.17 0 01-.17.11H135a.18.18 0 01-.17-.11L133 80l-.71 4.41a.18.18 0 01-.17.14h-.65c-.13 0-.2-.09-.18-.23zm15.71.14a.19.19 0 01.19-.19h2.2a1.8 1.8 0 011 3.4 1.79 1.79 0 011.23 1.61 2 2 0 01-2.15 1.9h-2.31a.19.19 0 01-.19-.19zm2.49 5.81a1.05 1.05 0 001.07-1.07 1.14 1.14 0 00-1.21-1h-1.36v2.11zm-.15-3a1 1 0 001-1 1 1 0 00-1-1h-1.34v2.07zM165 77.55a3.55 3.55 0 11-3.54 3.56 3.54 3.54 0 013.54-3.56m0 6.11a2.56 2.56 0 002.56-2.55 2.56 2.56 0 10-5.11 0 2.55 2.55 0 002.55 2.55m12.62-5.83a.19.19 0 01.19-.18h.66a.18.18 0 01.19.18v4.08a1.65 1.65 0 103.29 0v-4.1a.18.18 0 01.19-.18h.66a.19.19 0 01.19.18V82a2.69 2.69 0 01-5.37 0zm14.38 0a.18.18 0 01.18-.19h2.69a2.13 2.13 0 012.15 2.11 2.19 2.19 0 01-1.46 2l1.35 2.51a.19.19 0 01-.17.29H196a.18.18 0 01-.16-.09l-1.31-2.62H193v2.52a.2.2 0 01-.19.19h-.64a.18.18 0 01-.18-.19zm2.82 3.17a1.23 1.23 0 001.2-1.23 1.2 1.2 0 00-1.2-1.17h-1.76V81zm14.8-3.45a3.58 3.58 0 012.39.91.19.19 0 010 .28c-.14.16-.29.31-.44.46s-.16.08-.26 0a2.63 2.63 0 00-1.67-.67 2.56 2.56 0 000 5.12 3.5 3.5 0 001.48-.33V82.2h-1a.18.18 0 01-.12-.2v-.57a.18.18 0 01.19-.19H212a.19.19 0 01.17.19v2.39a.25.25 0 01-.08.16 4.9 4.9 0 01-2.44.65 3.55 3.55 0 110-7.1" transform="translate(-.18 -.18)"/><path class="cls-3" d="M102 16.94h2.86a.59.59 0 01.59.59v20.38a.58.58 0 01-.58.58H102a.58.58 0 01-.58-.58V17.52a.58.58 0 01.58-.58z"/><path class="cls-3" d="M110.72 36.58c-.31-.25-.43-.43-.15-.92l1.1-1.91a.72.72 0 011-.22 7.41 7.41 0 004.65 1.91 2.57 2.57 0 002.8-2.37c0-1.57-1.32-2.65-3.91-3.69-2.89-1.18-5.79-3-5.79-6.65 0-2.75 2-5.92 6.93-5.92a10.79 10.79 0 016.16 2.07.75.75 0 01.18 1l-1.17 1.76a.81.81 0 01-1.07.37c-1.33-.83-2.59-1.7-4.28-1.7s-2.71 1-2.71 2.16c0 1.45 1.14 2.43 3.63 3.45 3 1.2 6.43 3 6.43 7 0 3.18-2.74 6.1-7.08 6.1a9.63 9.63 0 01-6.77-2.4" transform="translate(-.18 -.18)"/><path class="cls-3" d="M129.58 16.94h2.86a.59.59 0 01.59.59v20.38a.58.58 0 01-.58.58h-2.86a.59.59 0 01-.59-.59V17.52a.58.58 0 01.58-.58z"/><path class="cls-3" d="M142.24 20.82h-4.71a.59.59 0 01-.58-.59v-2.52a.59.59 0 01.58-.59H151a.58.58 0 01.58.59v2.52a.58.58 0 01-.58.59h-4.71v17.27a.6.6 0 01-.59.58h-2.86a.6.6 0 01-.59-.58zm-64.52-2.9a.55.55 0 01.52-.8h3.15a.57.57 0 01.52.34l5.94 13.24H88l6-13.24a.56.56 0 01.52-.34h3.14a.54.54 0 01.52.8l-9.59 20.72a.54.54 0 01-.52.34h-.31a.54.54 0 01-.52-.34zM80 46.39a.51.51 0 01.55-.46H81a.57.57 0 01.53.31l6.77 14.53h.09l6.78-14.53a.52.52 0 01.52-.31h.49a.51.51 0 01.55.46l3.64 20.69a.54.54 0 01-.56.71H97a.66.66 0 01-.58-.46l-1.81-11.67h-.09l-5.39 12.1a.53.53 0 01-.52.34h-.56a.56.56 0 01-.52-.34l-5.45-12.1H82l-1.8 11.67a.6.6 0 01-.55.46h-2.77a.57.57 0 01-.59-.71zm34.57-.46a11.09 11.09 0 11-11 11.11 11.07 11.07 0 0111-11.11m0 18.16a7.08 7.08 0 10-7-7.05 7.09 7.09 0 007 7.05m14.65 1.6c-.3-.24-.43-.43-.15-.92l1.11-1.91a.7.7 0 011-.21 7.49 7.49 0 004.65 1.91 2.57 2.57 0 002.81-2.37c0-1.57-1.33-2.65-3.91-3.7-2.9-1.17-5.79-3-5.79-6.65 0-2.74 2-5.91 6.92-5.91a10.82 10.82 0 016.2 2.07.77.77 0 01.19 1l-1.17 1.75a.81.81 0 01-1.08.37 7.94 7.94 0 00-4.28-1.69c-1.76 0-2.71 1-2.71 2.15C133 53 134.15 54 136.64 55c3 1.2 6.44 3 6.44 7 0 3.17-2.74 6.1-7.08 6.1a9.68 9.68 0 01-6.78-2.41m18.46-18.87a.57.57 0 01.58-.58h12.53a.58.58 0 01.59.58v2.53a.58.58 0 01-.59.58h-9.11v5h7.6a.61.61 0 01.59.59v2.55a.59.59 0 01-.59.59h-7.6v5.38h9.11a.59.59 0 01.59.59v2.57a.59.59 0 01-.59.59h-12.53a.58.58 0 01-.58-.59zm50.76 0a.58.58 0 01.59-.58h12.53a.57.57 0 01.58.58v2.53a.57.57 0 01-.58.58h-9.12v5h7.61a.6.6 0 01.58.59v2.55a.58.58 0 01-.58.59h-7.61v5.38h9.12a.58.58 0 01.58.59v2.57a.58.58 0 01-.58.59H199a.59.59 0 01-.59-.59zm-32.12 0a.58.58 0 01.59-.58h2.83a.59.59 0 01.58.58v17.27h7.86a.58.58 0 01.58.59v2.52a.58.58 0 01-.58.59h-11.27a.59.59 0 01-.59-.59zm16.06 0a.58.58 0 01.59-.58h2.83a.59.59 0 01.58.58v17.27h7.86a.59.59 0 01.58.59v2.52a.59.59 0 01-.58.59H183a.59.59 0 01-.59-.59zM42.51 16.39a26.22 26.22 0 1026.22 26.29 26.11 26.11 0 00-26.22-26.29m6.17 41.79l-6.07 6.07-6-6a16.75 16.75 0 016-32.36 16.73 16.73 0 016.11 32.32" transform="translate(-.18 -.18)"/></g></g></svg>